<svg width="100" height="100" viewBox="0 0 100 100" fill="none" xmlns="http://www.w3.org/2000/svg">
<g clip-path="url(#clip0_24_8)">
<path d="M0 12.5C0 9.18479 1.31696 6.00537 3.66117 3.66117C6.00537 1.31696 9.18479 0 12.5 0L62.5 0C65.8152 0 68.9946 1.31696 71.3388 3.66117C73.683 6.00537 75 9.18479 75 12.5V25H87.5C90.8152 25 93.9946 26.317 96.3388 28.6612C98.683 31.0054 100 34.1848 100 37.5V87.5C100 90.8152 98.683 93.9946 96.3388 96.3388C93.9946 98.683 90.8152 100 87.5 100H37.5C34.1848 100 31.0054 98.683 28.6612 96.3388C26.317 93.9946 25 90.8152 25 87.5V75H12.5C9.18479 75 6.00537 73.683 3.66117 71.3388C1.31696 68.9946 0 65.8152 0 62.5V12.5ZM75 25H31.25C29.5924 25 28.0027 25.6585 26.8306 26.8306C25.6585 28.0027 25 29.5924 25 31.25V75H68.75C70.4076 75 71.9973 74.3415 73.1694 73.1694C74.3415 71.9973 75 70.4076 75 68.75V25Z" fill="#D9D9D9" fill-opacity="0.5"/>
</g>
<defs>
<clipPath id="clip0_24_8">
<rect width="100" height="100" fill="white"/>
</clipPath>
</defs>
</svg>
